<svg width="94" height="95" viewBox="0 0 94 95" fill="none" xmlns="http://www.w3.org/2000/svg">
<path d="M13.3188 24.5099C7.70422 22.1552 5.55491 23.6207 5.55491 29.8035C5.55491 34.6267 5.83268 39.47 5.48394 44.2678C5.05718 50.1315 7.47251 54.8113 9.94471 59.8972C13.1022 66.394 17.8229 71.29 22.9083 75.9712C25.8693 78.6972 27.2543 81.6333 26.7538 85.5691C26.6513 86.3751 26.8577 87.2211 26.9343 88.2128H43.6691C43.6691 82.0413 43.7307 76.0398 43.6061 70.0393C43.5864 69.0885 42.91 67.9906 42.229 67.2405C36.6332 61.0774 30.9147 55.0252 25.3621 48.8235C24.3093 47.6485 23.0624 47.4925 21.6524 47.2255C20.5827 48.2017 19.6784 49.5229 18.9654 50.9827" stroke="black" stroke-width="2" stroke-linecap="round" stroke-linejoin="round"/>
<path d="M76.845 50.9783L74.6219 47.5473C71.3371 46.5491 69.8443 49.1453 68.4804 50.718C64.2161 55.6304 59.7196 60.3196 55.2899 65.0699C53.1001 67.4199 51.8838 69.8587 52.0704 73.2164C52.3444 78.1448 52.1409 83.0995 52.1409 88.2094H69.3165C66.7668 79.8965 72.7945 75.8954 77.6017 71.5018C83.5279 66.0851 86.0617 58.6835 89.9279 52.0509C90.4919 51.0822 90.223 50.146 90.2301 49.2126C90.2771 42.743 90.2555 36.2725 90.2555 29.8016C90.2555 23.6187 88.1062 22.1533 82.4915 24.508" stroke="black" stroke-width="2" stroke-linecap="round" stroke-linejoin="round"/>
<path d="M47.9043 7.5701C46.9643 6.98213 45.9895 6.4421 45.0843 5.7982C39.3601 1.7327 33.973 3.83031 30.6506 7.60629C27.0936 11.6483 26.9159 17.9416 31.0111 21.9883C36.3987 27.3148 42.1322 32.2912 47.8841 37.5726C51.5435 34.2826 55.0281 31.1726 58.484 28.0316C60.3926 26.2963 62.2651 24.5202 64.1329 22.7403C68.4358 18.64 69.3692 12.2123 64.7843 7.26789C60.7127 2.87856 53.5419 3.12484 47.9113 7.556" stroke="black" stroke-width="2" stroke-linecap="round" stroke-linejoin="round"/>
<path d="M21.4358 47.0962C20.6546 41.8172 21.0771 36.5029 21.1852 31.2173C21.229 29.0872 20.9343 26.9896 21.0363 24.8605C21.1749 21.9747 19.9181 20.6282 17.554 20.6282C15.3812 20.6282 13.4251 22.7455 13.708 25.2116C14.4097 31.3282 13.7795 37.4532 14.0445 43.5665C14.0915 44.6419 13.7155 45.7173 14.6974 46.7743C19.9501 52.4195 23.5907 59.3755 29.2002 64.7419" stroke="black" stroke-width="2" stroke-linecap="round" stroke-linejoin="round"/>
<path d="M74.3723 47.0962C75.1535 41.8172 74.7314 36.5029 74.6228 31.2173C74.5791 29.0872 74.8743 26.9896 74.7718 24.8605C74.6308 21.9747 75.8904 20.6282 78.2545 20.6282C80.4268 20.6282 82.3835 22.7455 82.1005 25.2116C81.3988 31.3282 82.0291 37.4532 81.764 43.5665C81.717 44.6419 82.093 45.7173 81.1112 46.7743C75.858 52.4195 72.2178 59.3755 66.6084 64.7419" stroke="black" stroke-width="2" stroke-linecap="round" stroke-linejoin="round"/>
<path d="M34.67 57.3303C35.8248 53.1365 35.1898 48.8492 35.0968 44.6282C35.0366 41.9022 32.9019 41.349 28.8458 42.5085" stroke="black" stroke-width="2" stroke-linecap="round" stroke-linejoin="round"/>
<path d="M66.9613 42.5085C62.1984 40.7808 59.996 42.4939 60.5882 47.4515C60.9792 50.7264 60.0035 54.0878 61.1385 57.3303" stroke="black" stroke-width="2" stroke-linecap="round" stroke-linejoin="round"/>
<path d="M27.4353 50.2725C28.6023 46.9251 28.1088 43.4631 28.1403 40.0382C28.1558 38.2733 27.972 36.4887 28.1755 34.7483C28.7555 29.7894 26.554 28.0743 21.7906 29.8035" stroke="black" stroke-width="2" stroke-linecap="round" stroke-linejoin="round"/>
<path d="M74.0199 29.8035C69.2564 28.0762 67.1851 29.78 67.6048 34.7498C67.9202 38.4872 67.7232 42.2744 67.6396 46.0368C67.6062 47.5253 67.8854 48.9038 68.3733 50.2724" stroke="black" stroke-width="2" stroke-linecap="round" stroke-linejoin="round"/>
</svg>
