<svg width="97" height="98" viewBox="0 0 97 98" fill="none" xmlns="http://www.w3.org/2000/svg">
<path d="M76.5757 81.1733C76.7745 80.4458 77.2406 79.8929 77.7882 79.4176C81.6168 76.1007 84.6781 72.1625 87.122 67.75C89.465 63.5193 91.0544 58.987 91.8265 54.2229C92.36 50.9249 92.5651 47.5958 92.3483 44.2178C92.0316 39.2921 90.9903 34.5867 89.1236 30.0291C87.1239 25.1534 84.3187 20.8166 80.7603 16.9409C78.0559 13.996 75.0193 11.4531 71.619 9.36958C66.897 6.47511 61.822 4.50407 56.3454 3.49672C52.6101 2.81377 48.8015 2.62283 45.0167 2.92879C39.1429 3.39439 33.5426 4.98034 28.2784 7.78557C23.1922 10.4962 18.8326 14.0008 15.0743 18.3557C12.7337 21.0683 10.8063 24.034 9.1893 27.1894C7.38268 30.7188 6.17697 34.4829 5.4034 38.3886C4.88445 41.0105 4.64292 43.6644 4.58617 46.3115C4.5315 48.9639 4.74436 51.6151 5.22152 54.2248C6.05863 58.8042 7.51945 63.2021 9.73202 67.3048C11.2866 70.1867 13.1547 72.8882 15.3022 75.3601C18.1322 78.6256 21.3536 81.3872 24.9891 83.7162C29.6384 86.6955 34.6348 88.7369 40.0629 89.7622C43.0486 90.3262 46.0343 90.7681 49.0839 90.5765" stroke="black" stroke-width="2" stroke-linecap="round" stroke-linejoin="round"/>
<path d="M58.8693 30.5835C59.266 29.6858 59.1263 28.7847 58.7466 27.95C57.9221 26.1371 57.0263 24.3901 55.9093 22.6965C54.9364 21.2206 53.9543 19.7205 52.915 18.2772C52.1875 17.2669 51.346 16.3333 50.5031 15.4157C49.6393 14.4743 47.6202 14.4277 46.6779 15.4239C44.8456 17.3605 43.0787 19.4145 41.7857 21.7182C40.8094 23.4579 39.4577 24.9939 38.8272 26.948C38.4751 28.0383 38.009 29.082 38.0881 30.2552C38.1307 30.8906 37.5585 31.2625 37.5061 31.9042C37.2054 35.6906 38.4324 38.8882 41.1751 41.4587C43.1869 43.3449 45.6157 44.3556 48.5301 44.3314V77.2144" stroke="black" stroke-width="2" stroke-linecap="round" stroke-linejoin="round"/>
<path d="M60.8491 45.3206C61.2143 45.9709 61.3341 46.663 61.2953 47.4104C61.1376 50.3476 61.5019 53.2726 61.5407 56.2078C61.563 57.9053 62.7818 59 64.4788 59.1731C67.2947 59.4607 70.1223 59.4273 72.9459 59.3817C73.8228 59.3605 74.6914 59.5549 75.4757 59.9477" stroke="black" stroke-width="2" stroke-linecap="round" stroke-linejoin="round"/>
<path d="M36.214 45.3206C35.8483 45.9709 35.729 46.663 35.7673 47.4104C35.9249 50.3476 35.6029 53.275 35.5248 56.2074C35.4807 57.9 34.2842 58.9932 32.5828 59.1746C29.8401 59.4656 27.0858 59.4171 24.3349 59.3846C23.3881 59.3679 22.4494 59.5602 21.5854 59.9477" stroke="black" stroke-width="2" stroke-linecap="round" stroke-linejoin="round"/>
<path d="M58.4294 62.477C63.0286 67.1132 70.8342 66.4948 74.8514 61.4285C75.787 60.2485 76.8671 58.9865 77.3637 57.4238C77.8061 56.0314 78.6427 54.7321 78.6301 53.2392C78.6218 52.2857 79.1922 51.5762 79.327 50.7095C79.6272 48.7758 79.9284 46.8503 80.0438 44.8841C80.1074 43.7953 80.1345 42.8723 79.5714 41.896C79.0913 41.0633 78.3866 40.8159 77.5645 40.7083C76.126 40.5201 74.7059 40.8644 73.2781 40.9508C72.1202 41.0189 70.9762 41.2392 69.8758 41.606C67.7035 42.3422 65.3372 42.3359 63.259 43.4325C62.4258 43.8724 61.5203 44.1877 60.9824 45.0054C60.8974 45.1402 60.7717 45.2445 60.6235 45.3032C57.2896 46.3702 56.1509 49.2802 55.4243 52.1572C54.4616 55.9688 55.4374 59.5059 58.3193 62.366" stroke="black" stroke-width="2" stroke-linecap="round" stroke-linejoin="round"/>
<path d="M38.7432 62.3671C42.8265 58.474 42.9928 51.8164 39.3083 47.3976C38.509 46.4377 37.7951 45.4925 36.4366 45.2985C35.9603 45.2315 35.9031 44.5564 35.4486 44.3207C33.3321 43.227 31.2408 42.0752 28.7348 42.2352C28.6167 42.2402 28.501 42.2014 28.4098 42.1261C27.5684 41.337 26.4247 41.3016 25.43 41.1963C23.6782 41.0111 21.938 40.6143 20.1566 40.6944C18.5983 40.7657 17.4954 41.4854 16.9784 42.9045C16.862 43.2187 16.8247 43.5566 16.8698 43.8886C17.2335 46.1162 17.1841 48.3991 17.7355 50.5995C17.7525 50.6689 17.7171 50.7533 17.7403 50.8178C18.6192 53.2428 18.7181 55.9055 20.0431 58.1898C20.3492 58.718 20.5655 59.2913 21.1373 59.6332C21.3138 59.7389 21.5156 59.865 21.6053 60.1613C22.3221 62.5262 24.2898 63.6 26.319 64.5593C30.4565 66.5153 35.5442 65.6632 38.6332 62.4767" stroke="black" stroke-width="2" stroke-linecap="round" stroke-linejoin="round"/>
<path d="M48.6411 38.6117C49.6596 38.5055 50.4545 38.0341 51.1835 37.3022C53.0522 35.4321 54.9777 33.6162 56.8934 31.7946C57.4356 31.2785 57.9953 30.7673 58.8053 30.5699C59.7792 31.6292 59.7932 32.817 59.5813 34.2181C59.333 35.8642 58.945 37.4502 58.0715 38.812C55.8861 42.2187 52.8402 44.2959 48.531 44.3304V14.8569" stroke="black" stroke-width="2" stroke-linecap="round" stroke-linejoin="round"/>
<path d="M68.5475 42.3511C68.9801 43.7998 68.693 45.2839 68.7623 46.7505C68.8268 48.1085 68.9035 49.4088 69.7241 50.6217C70.3337 51.5229 71.1063 51.8735 72.0671 51.905C73.6783 51.9574 75.2929 51.9336 76.9055 51.9113C77.4734 51.9036 78.021 51.9598 78.5545 52.1393" stroke="black" stroke-width="2" stroke-linecap="round" stroke-linejoin="round"/>
<path d="M28.518 42.3511C28.2678 42.9534 28.3041 43.5878 28.294 44.2207C28.2697 45.7242 28.3871 47.2534 28.1485 48.723C27.8434 50.5873 26.708 51.953 24.8897 51.9239C23.314 51.8992 21.7372 51.9332 20.161 51.9108C19.5931 51.9031 19.0455 51.9593 18.512 52.1388" stroke="black" stroke-width="2" stroke-linecap="round" stroke-linejoin="round"/>
<path d="M38.3033 30.4734C38.9435 30.6058 39.3927 31.0185 39.849 31.4575C42.0354 33.5614 44.2475 35.6372 46.4382 37.7358C47.0018 38.2761 47.6275 38.5894 48.4214 38.5021" stroke="black" stroke-width="2" stroke-linecap="round" stroke-linejoin="round"/>
<path d="M61.9486 58.7378C58.2825 62.4039 54.5654 66.0205 50.9769 69.7609C49.5985 71.1969 47.4641 71.1969 46.0857 69.7609C42.4967 66.0205 38.7801 62.4039 35.114 58.7378" stroke="black" stroke-width="2" stroke-linecap="round" stroke-linejoin="round"/>
<path d="M74.871 73.145C74.8895 75.0511 74.9195 76.9576 74.9195 78.8637C74.9195 79.4971 75.0379 80.0616 75.3395 80.6373C75.5403 81.0209 75.7857 81.052 76.1228 81.2028C78.5172 82.2752 81.0503 81.6257 83.5044 81.8881" stroke="black" stroke-width="2" stroke-linecap="round" stroke-linejoin="round"/>
<path d="M78.7752 42.0212L70.307 50.3797" stroke="black" stroke-width="2" stroke-linecap="round" stroke-linejoin="round"/>
<path d="M18.3975 42.0212L26.7555 50.3797" stroke="black" stroke-width="2" stroke-linecap="round" stroke-linejoin="round"/>
<path d="M55.678 22.7749C53.9524 23.8065 52.8019 25.4749 51.2912 26.7485C50.4929 27.4217 49.7445 28.1036 48.6392 28.1637" stroke="black" stroke-width="2" stroke-linecap="round" stroke-linejoin="round"/>
<path d="M41.6028 22.885C43.2732 24.1339 44.6908 25.6621 46.2103 27.0793C46.8617 27.688 47.5431 28.0929 48.4239 28.1638" stroke="black" stroke-width="2" stroke-linecap="round" stroke-linejoin="round"/>
<path d="M27.5257 51.2595L34.2342 57.8556" stroke="black" stroke-width="2" stroke-linecap="round" stroke-linejoin="round"/>
<path d="M69.5369 51.2595L62.8284 57.8556" stroke="black" stroke-width="2" stroke-linecap="round" stroke-linejoin="round"/>
</svg>
