<svg width="95" height="96" viewBox="0 0 95 96" fill="none" xmlns="http://www.w3.org/2000/svg">
<path d="M33.3531 22.4138L35.3742 22.4518C35.4379 22.4518 35.5134 22.4295 35.5642 22.4556C36.1394 22.7572 36.7992 22.6456 37.3958 22.8356C38.0969 23.0588 38.8051 23.2631 39.4915 23.5262C41.1507 24.1608 42.6864 25.0144 44.0325 26.1891C45.3687 27.3552 46.5828 28.6187 47.5143 30.1487C47.9546 30.8716 48.3693 31.6107 48.6989 32.3779C48.9971 33.0777 49.2432 33.7987 49.4352 34.5348C49.553 34.9799 49.5829 35.4449 49.7496 35.8772C49.8021 36.0126 49.8406 36.1529 49.8646 36.2961C50.0674 37.5354 50.0683 38.7885 49.9971 40.032C49.9532 40.7022 49.8536 41.3676 49.6993 42.0213C49.5701 42.5856 49.4086 43.1376 49.2608 43.6952C48.8943 45.0655 48.2557 46.3479 47.3832 47.4662C46.7438 48.2961 46.0484 49.0812 45.4091 49.9134C44.6345 50.9127 44.0003 52.0134 43.5243 53.1848C43.234 53.903 42.9391 54.6273 42.7643 55.3698C42.6028 56.0471 42.3054 56.7064 42.3244 57.4222C42.3205 57.541 42.2891 57.6572 42.2327 57.7619C42.1159 58.0231 42.1012 58.2882 42.0817 58.566C42.0494 59.0268 41.9463 59.4932 41.733 59.896C41.448 60.4271 40.9659 60.6774 40.3351 60.6717C38.5429 60.6551 36.7493 60.6988 34.9586 60.6475C34.3705 60.6304 33.7887 60.6551 33.2039 60.6651C32.9441 60.6693 32.6814 60.6822 32.4392 60.5553C32.4116 60.5352 32.3788 60.5234 32.3447 60.5214C32.3106 60.5193 32.2766 60.5272 32.2468 60.5439C31.9252 60.7097 31.568 60.6655 31.2208 60.6655C29.441 60.6655 27.6616 60.6589 25.8818 60.6722C25.5493 60.6722 25.3379 60.5772 25.1489 60.2922C24.7846 59.7398 24.6739 59.1327 24.5708 58.4962C24.4815 57.9333 24.4535 57.3529 24.2136 56.8119C24.0844 56.5202 24.1253 56.1796 24.0303 55.8576C23.7647 54.9551 23.4883 54.0635 23.1363 53.1933C22.4552 51.5099 21.4353 50.0493 20.2445 48.6875C19.2712 47.5741 18.3616 46.4037 17.8382 44.9934C17.5124 44.1383 17.2469 43.2616 17.0435 42.3695C16.8981 41.7078 16.8155 41.0395 16.7053 40.3778C16.5219 39.2801 16.558 38.1634 16.7053 37.0637C16.8255 36.1536 16.9903 35.2402 17.2449 34.36C17.4786 33.5525 17.7622 32.7493 18.1426 31.9903C18.715 30.8332 19.3506 29.7212 20.1519 28.6995C21.3275 27.2018 22.725 25.9601 24.3172 24.9327C25.0403 24.4566 25.8073 24.0507 26.6076 23.7205C27.427 23.3918 28.2554 23.0555 29.1223 22.8812C30.1901 22.667 31.2488 22.3554 32.3618 22.4447C32.6767 22.4698 32.9973 22.4252 33.3151 22.4124" stroke="black" stroke-width="2" stroke-linecap="round" stroke-linejoin="round"/>
<path d="M25.3446 60.6631C25.2827 60.8298 25.1927 60.9846 25.0786 61.121C24.8273 61.4188 24.7532 61.7594 24.7651 62.1503C24.7903 62.964 25.3683 63.561 26.1839 63.561H40.5223C40.7927 63.5555 41.0583 63.633 41.2834 63.7831C41.5085 63.9331 41.6821 64.1486 41.781 64.4003C42.0157 64.9665 41.9074 65.5646 41.5155 65.9678C41.2305 66.2609 40.9075 66.3953 40.4843 66.3953C36.1371 66.3836 31.7897 66.3811 27.4422 66.3877C26.5791 66.3877 25.955 67.0123 25.955 67.8749C25.955 68.6881 26.5853 69.2861 27.4422 69.2861H38.6522C39.6383 69.2861 40.3294 70.1606 40.1014 71.1168C40.0338 71.3925 39.8781 71.6387 39.6579 71.8179C39.4376 71.9971 39.1649 72.0995 38.8811 72.1095C36.2758 72.1917 33.6694 72.1309 31.0636 72.139C30.5848 72.139 30.135 72.2216 29.7336 72.4619C29.5312 72.5835 29.3911 72.5783 29.2325 72.4496C29.0672 72.3171 28.869 72.2321 28.6591 72.2036" stroke="black" stroke-width="2" stroke-linecap="round" stroke-linejoin="round"/>
<path d="M34.3829 45.9048C34.3943 46.5465 34.1796 47.1678 34.2095 47.8114C34.2152 47.9383 34.1929 48.0656 34.1929 48.1914C34.1929 52.2847 34.1929 56.3777 34.1929 60.4707" stroke="black" stroke-width="2" stroke-linecap="round" stroke-linejoin="round"/>
<path d="M35.1453 45.2944C35.1453 44.618 35.5842 44.1929 36.0231 43.7696C36.4816 43.3231 37.0296 42.9788 37.6309 42.7593C37.9772 42.6349 38.4147 42.5693 38.7643 42.8215C39.139 43.0909 39.2312 43.4813 39.111 43.9221C39.0307 44.218 38.8042 44.3938 38.5776 44.571C38.2247 44.8493 37.81 44.9918 37.402 45.1585C36.9996 45.3248 36.5612 45.2835 36.1713 45.4777C35.9456 45.5903 35.6758 45.5609 35.4535 45.4416C35.1771 45.2934 34.96 45.3243 34.7643 45.5618C34.5339 45.8468 34.2779 45.8615 33.9207 45.7694C33.441 45.6459 32.9303 45.6668 32.4378 45.7908C32.1528 45.8625 32.0801 46.0729 32.1361 46.3232C32.2924 47.0153 32.3261 47.7159 32.3261 48.4218C32.3233 52.4384 32.3233 56.4552 32.3261 60.4721" stroke="black" stroke-width="2" stroke-linecap="round" stroke-linejoin="round"/>
<path d="M31.3699 45.2564C31.3072 44.5335 30.8607 44.049 30.3387 43.6186C29.8908 43.2491 29.4006 42.9246 28.8487 42.7541C28.5005 42.6467 28.0958 42.5888 27.749 42.8187C27.4284 43.0315 27.2769 43.3502 27.3329 43.7302C27.3971 44.1696 27.7177 44.4484 28.0559 44.6802C28.6036 45.0541 29.2325 45.2308 29.8827 45.3339C29.9592 45.3457 30.0494 45.3372 30.1093 45.3752C30.552 45.6569 30.9643 45.5262 31.3628 45.2769L32.1703 45.9058" stroke="black" stroke-width="2" stroke-linecap="round" stroke-linejoin="round"/>
<path d="M28.0521 9.75293C28.0576 10.0392 28.1022 10.3233 28.1846 10.5975C28.3323 11.111 28.3566 11.6596 28.4345 12.1935C28.4478 12.2823 28.4293 12.3664 28.4654 12.4628C28.6919 13.0632 28.7095 13.7102 28.8582 14.3277C29.014 14.9732 29.109 15.6344 29.2311 16.2818C29.3313 16.8152 29.461 17.361 29.5108 17.913C29.5441 18.2825 29.7165 18.6359 29.6923 19.0197" stroke="black" stroke-width="2" stroke-linecap="round" stroke-linejoin="round"/>
<path d="M40.7512 9.48608C40.8937 9.88508 40.851 10.2584 40.7374 10.6736C40.6339 11.0536 40.5683 11.4706 40.4553 11.8402C40.28 12.4102 40.147 12.9921 39.9969 13.5673C39.7461 14.5306 39.4678 15.4872 39.2307 16.4553C39.1224 16.8966 39.0555 17.3682 38.8602 17.8048C38.6873 18.1919 38.6479 18.6389 38.552 19.0493C38.2731 19.0835 38.0019 19.0098 37.7388 19.0944" stroke="black" stroke-width="2" stroke-linecap="round" stroke-linejoin="round"/>
<path d="M63.594 38.8495C62.9328 38.7788 62.2706 38.8495 61.6113 38.8372C60.4789 38.8125 59.3465 38.8519 58.2174 38.8272C57.1857 38.8054 56.1573 38.8153 55.1299 38.8514C54.824 38.8619 54.5214 38.7565 54.2145 38.8305" stroke="black" stroke-width="2" stroke-linecap="round" stroke-linejoin="round"/>
<path d="M12.2645 38.8306C11.514 38.7831 10.7673 38.7498 10.0135 38.8402C9.40691 38.9133 8.79178 38.7608 8.18426 38.7841C7.06421 38.8278 5.94796 38.8316 4.82791 38.7841C4.20708 38.757 3.58246 38.8254 2.95973 38.8506" stroke="black" stroke-width="2" stroke-linecap="round" stroke-linejoin="round"/>
<path d="M60.0092 26.3416C58.5599 27.0156 57.1088 27.6844 55.6624 28.3641C54.5153 28.9037 53.3738 29.4566 52.2295 30.0029" stroke="black" stroke-width="2" stroke-linecap="round" stroke-linejoin="round"/>
<path d="M7.57388 24.3768C7.83418 24.2989 7.96243 24.5407 8.14056 24.6352C9.34231 25.2731 10.5113 25.9704 11.6988 26.6344C12.7913 27.2458 13.8781 27.8694 14.9734 28.4732C15.1022 28.5444 15.2518 28.5777 15.3914 28.6285" stroke="black" stroke-width="2" stroke-linecap="round" stroke-linejoin="round"/>
<path d="M59.1703 53.2648C58.7703 53.2895 58.4934 52.9936 58.1885 52.8278C56.6685 52.0013 55.1827 51.1103 53.676 50.2548C52.9221 49.8273 52.1522 49.4259 51.3893 49.0127" stroke="black" stroke-width="2" stroke-linecap="round" stroke-linejoin="round"/>
<path d="M15.0485 49.0508C13.1672 50.1132 11.286 51.1742 9.40501 52.2337C8.82503 52.56 8.23176 52.8626 7.65463 53.1937C7.48648 53.2887 7.32213 53.2469 7.15588 53.2649" stroke="black" stroke-width="2" stroke-linecap="round" stroke-linejoin="round"/>
<path d="M21.4168 22.2232C21.3484 21.8094 21.0125 21.5582 20.7964 21.2385C19.996 20.0638 19.1548 18.9172 18.3264 17.7615C17.68 16.859 17.0164 15.9655 16.3936 15.0454C16.2711 14.8645 16.1561 14.8668 16.0008 14.863" stroke="black" stroke-width="2" stroke-linecap="round" stroke-linejoin="round"/>
<path d="M52.2106 15.626C52.365 16.1224 52.0448 16.4425 51.7698 16.766C50.8858 17.8134 49.9852 18.8465 49.105 19.8967C48.2814 20.88 47.4786 21.8808 46.6588 22.8669C46.6009 22.9352 46.5578 23.0147 46.5321 23.1004C46.5064 23.1862 46.4988 23.2763 46.5096 23.3652" stroke="black" stroke-width="2" stroke-linecap="round" stroke-linejoin="round"/>
<path d="M29.5393 72.5994C29.575 73.0244 29.7511 73.4255 30.04 73.7394C30.4114 74.1431 30.732 74.5711 30.9534 75.0769C31.2436 75.7386 31.6906 76.253 32.3998 76.4886C33.24 76.7675 34.0566 76.6972 34.7947 76.2112C35.0878 76.0184 35.3291 75.7301 35.5291 75.4232C35.6977 75.1643 35.7898 74.8926 35.7556 74.5825" stroke="black" stroke-width="2" stroke-linecap="round" stroke-linejoin="round"/>
<path d="M39.6454 18.1811C39.4165 18.172 39.1847 18.2081 38.959 18.1426" stroke="black" stroke-width="2" stroke-linecap="round" stroke-linejoin="round"/>
<path d="M32.6387 76.5764V83.1443C32.6387 83.8742 32.7826 84.5971 33.0623 85.2713C33.3419 85.9456 33.7518 86.5581 34.2684 87.0738C34.7851 87.5896 35.3983 87.9983 36.0731 88.2768C36.7479 88.5552 37.4709 88.6979 38.2009 88.6965L82.0876 88.6182C82.6424 88.6181 83.1918 88.5087 83.7043 88.2961C84.2168 88.0836 84.6824 87.7721 85.0744 87.3794C85.4664 86.9868 85.7772 86.5207 85.9889 86.0079C86.2007 85.495 86.3093 84.9455 86.3084 84.3907L86.2975 77.9739C86.7663 77.6761 87.0423 77.2267 87.2665 76.7232C87.5943 75.9879 87.9624 75.2726 88.341 74.5624C88.5017 74.2681 88.6045 73.9456 88.6435 73.6124C88.653 73.5298 88.6212 73.4191 88.691 73.3749C89.3641 72.937 89.5437 72.1703 89.8861 71.5291C90.8252 69.7716 91.7006 67.9832 92.597 66.2043C92.662 66.0756 92.7518 65.9193 92.7281 65.7925C92.5989 65.1123 92.9181 64.4834 92.9181 63.8175C92.9111 51.8186 92.9111 39.8197 92.9181 27.8205C92.9181 27.4405 92.8919 27.0719 92.7703 26.7152C92.7381 26.6381 92.7286 26.5534 92.7428 26.471C93.0715 24.9938 93.0017 23.5085 92.7309 22.0426C92.3215 19.822 90.3341 17.9453 88.1025 17.6185C86.7317 17.418 85.3432 17.3681 83.9866 17.7201C82.7959 18.0314 81.7366 18.7168 80.9645 19.6752C80.1925 20.6337 79.7485 21.8147 79.6979 23.0444C79.666 23.8737 79.6945 24.7069 79.6922 25.5362C79.6922 25.8687 79.6736 26.2012 79.8347 26.5033C79.8822 26.5888 79.9007 26.6796 79.8613 26.7451C79.6043 27.1726 79.696 27.6433 79.6955 28.0974C79.6917 39.9582 79.6906 51.8188 79.6922 63.6792C79.6922 64.1143 79.6561 64.5532 79.8641 64.9617C79.8803 64.9931 79.9387 64.9864 79.9059 65.0672C79.6551 65.6909 79.9966 66.2115 80.2531 66.723C81.2506 68.718 82.2239 70.7254 83.3216 72.6605C83.6955 73.3208 83.9786 73.9939 84.2716 74.6802C84.6227 75.4996 85.1266 76.2477 85.4767 77.0709C85.5822 77.297 85.733 77.4989 85.9199 77.6642C86.1446 77.8765 86.4177 78.0675 86.308 78.4589" stroke="black" stroke-width="2" stroke-linecap="round" stroke-linejoin="round"/>
<path d="M83.8057 32.1467C83.9605 32.2489 83.9444 32.408 83.9444 32.5619C83.9444 33.0929 83.9444 33.6237 83.9444 34.1541C83.9444 42.3241 83.9444 50.4927 83.9444 58.6598C83.9444 58.9728 83.8969 59.292 84.2232 59.4906" stroke="black" stroke-width="2" stroke-linecap="round" stroke-linejoin="round"/>
<path d="M88.6169 32.3892V59.2485" stroke="black" stroke-width="2" stroke-linecap="round" stroke-linejoin="round"/>
<path d="M79.9292 26.6093C81.0136 26.5466 82.098 26.6017 83.1825 26.6046C85.0863 26.6098 86.9905 26.5533 88.8934 26.5865C90.1407 26.6079 91.3857 26.5661 92.6317 26.5747" stroke="black" stroke-width="2" stroke-linecap="round" stroke-linejoin="round"/>
<path d="M79.9981 65.0286C80.3216 65.0053 80.6445 64.9626 80.9675 64.9621C84.4977 64.9574 88.0286 64.9561 91.56 64.9583C91.9215 64.9583 92.2821 64.9617 92.6331 65.0628" stroke="black" stroke-width="2" stroke-linecap="round" stroke-linejoin="round"/>
<path d="M88.6169 73.4396C88.3528 73.2301 88.0469 73.1598 87.7168 73.1613C86.7478 73.1651 85.7783 73.1665 84.8093 73.1613C84.5033 73.1573 84.2026 73.2423 83.9439 73.4059" stroke="black" stroke-width="2" stroke-linecap="round" stroke-linejoin="round"/>
</svg>
