<svg width="97" height="98" viewBox="0 0 97 98" fill="none" xmlns="http://www.w3.org/2000/svg">
<g clip-path="url(#clip0_1_331)">
<path d="M55.3176 76.6095C55.0266 75.3708 55.1018 74.2029 55.3991 72.9186C56.0509 70.0993 56.1557 67.2383 55.805 64.2977C55.2769 59.8678 53.6531 55.9858 51.0811 52.4206C50.5438 51.6761 50.2566 50.4321 49.6819 50.1071C46.9863 48.574 44.9735 46.0496 42.0228 44.9298C41.8836 44.8769 41.6983 44.8764 41.6052 44.7843C39.7137 42.868 37.1078 43.224 34.8026 42.7036C31.3926 41.9334 27.9971 42.6032 24.6278 43.2371C24.4367 43.273 24.2233 43.4146 24.0657 43.3647C21.6091 42.5833 20.0722 44.2066 18.4038 45.4987C14.4379 48.5692 10.959 52.0724 8.80078 56.6784C7.44278 59.5782 6.65708 62.609 6.48587 65.8633C6.03822 74.3537 9.26347 81.2102 15.6073 86.6141C18.7409 89.2816 22.454 90.8748 26.593 91.675C30.1039 92.354 33.545 92.2944 36.9167 91.5349C40.513 90.7249 43.8037 89.0308 46.6933 86.6548C49.7721 84.1241 52.3014 81.0977 54.5848 77.8642C55.0901 77.1483 55.5727 76.5833 56.4496 76.4727C57.3265 76.3621 57.8639 75.769 58.4299 75.1957C62.483 71.0931 66.5172 66.9716 70.5971 62.8961C76.0937 57.4069 81.6082 51.9369 87.1404 46.4861C90.8405 42.8249 93.896 38.7887 95.2234 33.6205C95.7627 31.5166 95.9878 29.401 96.0479 27.2505C96.0717 26.4212 95.7516 25.7281 95.1997 25.1292" stroke="black" stroke-width="2" stroke-linecap="round" stroke-linejoin="round"/>
<path d="M76.6736 42.2428C77.7533 41.7845 78.294 40.7514 79.0734 39.9754C83.6082 35.4591 88.1374 30.937 92.6612 26.409C93.0865 25.9856 93.5536 25.5637 94.0784 25.2882C95.3311 24.6305 95.9383 23.6208 95.6177 22.303C93.2587 12.6059 87.4639 5.94105 77.7877 3.27161C68.9607 0.837393 60.8292 2.76624 54.2245 9.18861C43.8037 19.3164 33.642 29.7119 23.3363 39.9633C22.4633 40.8334 22.1296 41.8272 21.9399 42.9514" stroke="black" stroke-width="2" stroke-linecap="round" stroke-linejoin="round"/>
<path d="M40.8917 66.9923C40.7593 69.008 40.3582 70.9359 39.1981 72.6518C35.5465 78.0523 28.047 78.3064 24.0564 73.6441C21.3176 70.4431 20.8336 66.7949 22.3914 63.4688C24.1815 59.646 27.269 57.6488 31.5579 57.6575C31.9347 57.6575 32.3121 57.6575 32.6894 57.6575" stroke="black" stroke-width="2" stroke-linecap="round" stroke-linejoin="round"/>
<path d="M81.6255 18.0574C81.3302 18.828 80.5949 19.1991 80.0594 19.7442C75.3617 24.524 70.649 29.2877 65.9212 34.0352C60.5639 39.4025 55.1908 44.7545 49.8018 50.0911" stroke="black" stroke-width="2" stroke-linecap="round" stroke-linejoin="round"/>
<path d="M58.9949 22.1589C59.1568 23.0955 58.6229 23.6809 58.0127 24.2881C52.3893 29.885 46.7751 35.4909 41.1702 41.1059C40.5368 41.7364 39.9252 42.367 39.6182 43.2317" stroke="black" stroke-width="2" stroke-linecap="round" stroke-linejoin="round"/>
<path d="M30.7087 50.4446C28.9584 50.7942 27.1867 50.8995 25.462 51.5392C19.7118 53.6732 16.0418 57.8588 14.8269 63.6186C12.9112 72.7032 17.7393 81.1965 27.1944 83.5973C34.3836 85.4228 41.1697 82.7243 45.4072 76.1768C46.7913 74.0384 47.5737 71.6852 47.8457 69.1147C48.4578 63.332 46.4848 58.5547 42.2833 54.7101C39.5275 52.1881 36.2208 50.7157 32.4062 50.5799C31.8863 50.5614 31.3688 50.4897 30.8504 50.4421" stroke="black" stroke-width="2" stroke-linecap="round" stroke-linejoin="round"/>
<path d="M31.1685 70.1304C32.7403 70.1304 34.0145 68.8562 34.0145 67.2845C34.0145 65.7127 32.7403 64.4385 31.1685 64.4385C29.5967 64.4385 28.3225 65.7127 28.3225 67.2845C28.3225 68.8562 29.5967 70.1304 31.1685 70.1304Z" stroke="black" stroke-width="2" stroke-linecap="round" stroke-linejoin="round"/>
</g>
<defs>
<clipPath id="clip0_1_331">
<rect width="97" height="97" fill="white" transform="translate(0 0.484375)"/>
</clipPath>
</defs>
</svg>
